<svg width="67" height="100" viewBox="0 0 67 100" fill="none" xmlns="http://www.w3.org/2000/svg">
<g clip-path="url(#clip0_11_72)">
<path d="M16.6684 100C25.8684 100 33.335 92.5333 33.335 83.3333V66.6667H16.6684C7.46838 66.6667 0.00170898 74.1333 0.00170898 83.3333C0.00170898 92.5333 7.46838 100 16.6684 100Z" fill="#0ACF83"/>
<path d="M0.00170898 50C0.00170898 40.8 7.46838 33.3333 16.6684 33.3333H33.335V66.6667H16.6684C7.46838 66.6667 0.00170898 59.2 0.00170898 50Z" fill="#A259FF"/>
<path d="M0.00170898 16.6667C0.00170898 7.46667 7.46838 0 16.6684 0H33.335V33.3333H16.6684C7.46838 33.3333 0.00170898 25.8667 0.00170898 16.6667Z" fill="#F24E1E"/>
<path d="M33.335 0H50.0016C59.2016 0 66.6683 7.46667 66.6683 16.6667C66.6683 25.8667 59.2016 33.3333 50.0016 33.3333H33.335V0Z" fill="#FF7262"/>
<path d="M66.6683 50C66.6683 59.2 59.2016 66.6667 50.0016 66.6667C40.8016 66.6667 33.335 59.2 33.335 50C33.335 40.8 40.8016 33.3333 50.0016 33.3333C59.2016 33.3333 66.6683 40.8 66.6683 50Z" fill="#1ABCFE"/>
</g>
<defs>
<clipPath id="clip0_11_72">
<rect width="66.67" height="100" fill="white"/>
</clipPath>
</defs>
</svg>
