<svg width="100" height="100" viewBox="0 0 100 100" fill="none" xmlns="http://www.w3.org/2000/svg">
<g clip-path="url(#clip0_11_64)">
<path d="M76.5625 0H23.4375C10.4933 0 0 10.4933 0 23.4375V76.5625C0 89.5067 10.4933 100 23.4375 100H76.5625C89.5067 100 100 89.5067 100 76.5625V23.4375C100 10.4933 89.5067 0 76.5625 0Z" fill="#F03C2E"/>
<mask id="mask0_11_64" style="mask-type:luminance" maskUnits="userSpaceOnUse" x="10" y="10" width="80" height="80">
<path d="M10.9375 10.9375H89.0625V89.0625H10.9375V10.9375Z" fill="white"/>
</mask>
<g mask="url(#mask0_11_64)">
<path d="M87.5879 46.5211L53.4789 12.4121C52.7757 11.708 51.8793 11.2285 50.9033 11.0343C49.9274 10.8401 48.9157 10.9399 47.9965 11.3211C47.3862 11.574 46.8318 11.9448 46.3649 12.4121L39.2848 19.4922L48.2692 28.4766C50.359 27.7441 52.7516 28.2445 54.4164 29.9098C55.209 30.7038 55.7622 31.7047 56.013 32.7982C56.2638 33.8917 56.2021 35.0337 55.8348 36.0938L64.4945 44.7535C66.5895 44.0309 69.0063 44.4969 70.6785 46.1742C71.5162 47.0115 72.0866 48.0786 72.3175 49.2402C72.5484 50.4019 72.4295 51.606 71.9758 52.7C71.3675 54.1668 70.2016 55.332 68.7345 55.9394C67.2674 56.5469 65.6191 56.5469 64.152 55.9395C63.4254 55.6383 62.7652 55.1973 62.2094 54.641C60.4516 52.8832 60.0172 50.2953 60.9059 48.1297L52.8297 40.0535V61.3063C53.416 61.5963 53.9517 61.9788 54.4164 62.4391C55.5392 63.5618 56.17 65.0846 56.17 66.6725C56.17 68.2603 55.5392 69.7831 54.4164 70.9059C53.2937 72.0286 51.7709 72.6594 50.183 72.6594C48.5952 72.6594 47.0724 72.0286 45.9496 70.9059C45.1116 70.0689 44.5408 69.0021 44.3095 67.8406C44.0783 66.679 44.1969 65.475 44.6504 64.3809C44.9515 63.6544 45.393 62.9945 45.9496 62.4391C46.5281 61.8629 47.1703 61.4258 47.9102 61.1328V39.6824C47.1761 39.3823 46.5095 38.9383 45.9496 38.3766C45.109 37.5369 44.5375 36.4658 44.3079 35.3001C44.0784 34.1343 44.2011 32.9266 44.6606 31.8309L35.7984 22.9738L12.4098 46.3379C11.7057 47.0415 11.2261 47.9382 11.0318 48.9144C10.8374 49.8907 10.937 50.9026 11.318 51.8223C11.5712 52.4328 11.9421 52.9875 12.4098 53.4547L46.5211 87.5609C46.9881 88.0282 47.5425 88.3989 48.1527 88.652C49.3856 89.1623 50.7707 89.1623 52.0035 88.652C52.6137 88.3989 53.1682 88.0282 53.6352 87.5609L87.5879 53.6621C88.0554 53.1949 88.4262 52.6402 88.6793 52.0297C88.9324 51.4192 89.0628 50.7648 89.0629 50.1039C89.0629 49.4429 88.9327 48.7884 88.6796 48.1778C88.4265 47.5672 88.0555 47.0125 87.5879 46.5453" fill="white"/>
</g>
</g>
<defs>
<clipPath id="clip0_11_64">
<rect width="100" height="100" fill="white"/>
</clipPath>
</defs>
</svg>
