<svg width="88" height="100" viewBox="0 0 88 100" fill="none" xmlns="http://www.w3.org/2000/svg">
<g clip-path="url(#clip0_11_78)">
<path d="M78.125 6.25H9.375C4.19922 6.25 0 10.4492 0 15.625V84.375C0 89.5508 4.19922 93.75 9.375 93.75H78.125C83.3008 93.75 87.5 89.5508 87.5 84.375V15.625C87.5 10.4492 83.3008 6.25 78.125 6.25ZM47.6172 74.4922C47.6172 83.0078 42.6172 86.8945 35.332 86.8945C28.75 86.8945 24.9414 83.4961 22.9883 79.375L29.6875 75.332C30.9766 77.6172 32.1484 79.5508 34.9805 79.5508C37.6758 79.5508 39.3945 78.4961 39.3945 74.375V46.4258H47.6172V74.4922ZM67.0703 86.8945C59.4336 86.8945 54.4922 83.2617 52.0898 78.4961L58.7891 74.6289C60.5469 77.5 62.8516 79.6289 66.8945 79.6289C70.293 79.6289 72.4805 77.9297 72.4805 75.5664C72.4805 72.7539 70.2539 71.7578 66.4844 70.0977L64.4336 69.2187C58.4961 66.6992 54.5703 63.5156 54.5703 56.8164C54.5703 50.6445 59.2773 45.957 66.6016 45.957C71.8359 45.957 75.5859 47.7734 78.2812 52.5391L71.875 56.6406C70.4688 54.1211 68.9453 53.125 66.582 53.125C64.1797 53.125 62.6562 54.6484 62.6562 56.6406C62.6562 59.1016 64.1797 60.0977 67.7148 61.6406L69.7656 62.5195C76.7578 65.5078 80.6836 68.5742 80.6836 75.4492C80.6836 82.832 74.8633 86.8945 67.0703 86.8945Z" fill="#F0F41E"/>
</g>
<defs>
<clipPath id="clip0_11_78">
<rect width="87.5" height="100" fill="white"/>
</clipPath>
</defs>
</svg>
