<svg width="100" height="100" viewBox="0 0 100 100" fill="none" xmlns="http://www.w3.org/2000/svg">
<g clip-path="url(#clip0_11_60)">
<path d="M76.5625 0H23.4375C10.4933 0 0 10.4933 0 23.4375V76.5625C0 89.5067 10.4933 100 23.4375 100H76.5625C89.5067 100 100 89.5067 100 76.5625V23.4375C100 10.4933 89.5067 0 76.5625 0Z" fill="#242938"/>
<path fill-rule="evenodd" clip-rule="evenodd" d="M75.0121 61.5902C75.3215 61.4125 75.5788 61.1565 75.7581 60.848C75.9374 60.5395 76.0324 60.1893 76.0336 59.8324L76.0703 48.0586C76.0713 47.7017 76.1663 47.3514 76.3457 47.043C76.5248 46.7344 76.782 46.4784 77.0914 46.3008L83.4738 42.6348C83.9412 42.3666 84.4958 42.2947 85.0161 42.4349C85.5364 42.575 85.9798 42.9158 86.2492 43.3824C86.4275 43.6915 86.5214 44.042 86.5215 44.3988V65.8035C86.5215 66.1614 86.4271 66.513 86.2477 66.8228C86.0684 67.1325 85.8105 67.3894 85.5 67.5676L61.4137 81.4023C61.106 81.5788 60.7575 81.6718 60.4028 81.6721C60.0481 81.6725 59.6995 81.5802 59.3914 81.4043L40.4887 70.593C40.1774 70.4149 39.9187 70.1578 39.7387 69.8477C39.5586 69.5377 39.4636 69.1855 39.4633 68.8269V58.034C39.4633 58.0219 39.4777 58.0137 39.4898 58.0195C39.4923 58.0211 39.4951 58.022 39.498 58.0221C39.5009 58.0222 39.5038 58.0215 39.5063 58.02C39.5088 58.0186 39.5109 58.0164 39.5123 58.0138C39.5136 58.0113 39.5143 58.0084 39.5141 58.0055V57.9934C39.5141 57.9852 39.5184 57.9769 39.5266 57.973L55.0945 49.0293C55.1086 49.0211 55.1023 48.9988 55.0863 48.9988C55.082 48.9987 55.0779 48.997 55.0748 48.9939C55.0718 48.9909 55.07 48.9867 55.0699 48.9824L55.1004 38.4008C55.1021 38.0429 55.0093 37.691 54.8313 37.3805C54.6533 37.07 54.3964 36.8121 54.0867 36.6328C53.7772 36.4533 53.4258 36.3585 53.068 36.3582C52.7102 36.3579 52.3587 36.4519 52.0488 36.6309L40.4785 43.298C40.1697 43.4757 39.8196 43.5692 39.4633 43.5692C39.107 43.5692 38.7569 43.4757 38.4481 43.298L26.841 36.6144C26.5318 36.4363 26.1812 36.3426 25.8243 36.3427C25.4675 36.3429 25.117 36.437 24.808 36.6155C24.499 36.794 24.2424 37.0507 24.0639 37.3597C23.8855 37.6688 23.7915 38.0193 23.7914 38.3762V57.5008C23.7918 57.8572 23.6985 58.2076 23.5208 58.5166C23.3431 58.8257 23.0874 59.0826 22.7791 59.2616C22.4709 59.4407 22.121 59.5356 21.7645 59.5369C21.4081 59.5381 21.0575 59.4456 20.7481 59.2687L14.3066 55.5863C13.9946 55.4082 13.7354 55.1505 13.5553 54.8396C13.3752 54.5287 13.2806 54.1757 13.2813 53.8164L13.3383 20.3894C13.339 20.0331 13.4334 19.6832 13.6119 19.3747C13.7904 19.0663 14.0468 18.8102 14.3554 18.632C14.664 18.4538 15.014 18.3598 15.3704 18.3594C15.7267 18.359 16.0769 18.4522 16.3859 18.6297L38.45 31.3027C38.7583 31.4798 39.1077 31.573 39.4633 31.573C39.8189 31.573 40.1682 31.4798 40.4766 31.3027L62.5348 18.6297C63.0023 18.361 63.5574 18.289 64.078 18.4295C64.5986 18.57 65.0421 18.9115 65.3109 19.3789C65.4891 19.6879 65.5824 20.0387 65.5824 20.3957V53.8305C65.5825 54.1882 65.4883 54.5396 65.3093 54.8493C65.1303 55.159 64.8729 55.416 64.5629 55.5945L53.0109 62.2473C52.7008 62.4264 52.4434 62.6841 52.2646 62.9944C52.0858 63.3047 51.992 63.6567 51.9926 64.0148C51.9933 64.373 52.0886 64.7246 52.2689 65.0341C52.4491 65.3436 52.708 65.6 53.0191 65.7773L59.3914 69.4047C59.6993 69.5802 60.0477 69.6722 60.4021 69.6715C60.7565 69.6709 61.1045 69.5775 61.4117 69.4008L75.0121 61.5902ZM76.3488 31.5977C76.3494 31.9574 76.4452 32.3106 76.6265 32.6213C76.8079 32.9319 77.0683 33.189 77.3813 33.3664C77.6944 33.5437 78.0489 33.6348 78.4087 33.6303C78.7685 33.6259 79.1207 33.526 79.4293 33.341L85.5328 29.6789C85.834 29.4983 86.0833 29.2428 86.2565 28.9373C86.4298 28.6318 86.5211 28.2867 86.5215 27.9355V20.4727C86.5207 20.2037 86.4667 19.9376 86.3626 19.6896C86.2584 19.4416 86.1061 19.2167 85.9146 19.0279C85.7231 18.8391 85.496 18.6901 85.2466 18.5895C84.9972 18.4889 84.7303 18.4387 84.4613 18.4418C84.1016 18.4464 83.7496 18.5463 83.441 18.7312L77.3375 22.3934C77.0361 22.5738 76.7866 22.8293 76.6133 23.1349C76.4401 23.4405 76.3489 23.7858 76.3488 24.1371V31.5996V31.5977Z" fill="#007FFF"/>
</g>
<defs>
<clipPath id="clip0_11_60">
<rect width="100" height="100" fill="white"/>
</clipPath>
</defs>
</svg>
