<svg width="100" height="100" viewBox="0 0 100 100" fill="none" xmlns="http://www.w3.org/2000/svg">
<g clip-path="url(#clip0_11_39)">
<path d="M76.5625 0H23.4375C10.4933 0 0 10.4933 0 23.4375V76.5625C0 89.5067 10.4933 100 23.4375 100H76.5625C89.5067 100 100 89.5067 100 76.5625V23.4375C100 10.4933 89.5067 0 76.5625 0Z" fill="#242938"/>
<path d="M50.0004 57.4027C54.0254 57.4027 57.2879 54.1398 57.2879 50.1152C57.2879 46.0906 54.0254 42.8277 50.0004 42.8277C45.9758 42.8277 42.7129 46.0906 42.7129 50.1152C42.7129 54.1398 45.9758 57.4027 50.0004 57.4027Z" fill="#00D8FF"/>
<path d="M50.0008 35.298C59.7852 35.298 68.8746 36.702 75.7281 39.0617C83.9855 41.9043 89.0625 46.2133 89.0625 50.1152C89.0625 54.1813 83.682 58.759 74.8145 61.6969C68.1105 63.918 59.2887 65.0774 50.0008 65.0774C40.4781 65.0774 31.4605 63.9891 24.6809 61.6723C16.1035 58.7406 10.9375 54.1039 10.9375 50.1152C10.9375 46.2449 15.7852 41.9691 23.9266 39.1309C30.8055 36.7324 40.1191 35.298 49.9992 35.298H50.0008Z" stroke="#00D8FF" stroke-width="3.48086"/>
<path d="M37.102 42.7492C41.9903 34.2734 47.7469 27.1008 53.2149 22.343C59.8024 16.6098 66.0719 14.3644 69.4516 16.3133C72.9738 18.3445 74.2516 25.293 72.3668 34.4422C70.943 41.359 67.5391 49.5801 62.8988 57.6262C58.1414 65.8754 52.6942 73.1434 47.3008 77.8574C40.4762 83.823 33.8781 85.982 30.4231 83.9894C27.0703 82.0574 25.7883 75.7211 27.3969 67.2504C28.7559 60.093 32.1664 51.3082 37.1004 42.7492H37.102Z" stroke="#00D8FF" stroke-width="3.48086"/>
<path d="M37.1141 57.6477C32.2121 49.1812 28.8746 40.6102 27.4817 33.4969C25.8047 24.9262 26.9903 18.3734 30.3672 16.4187C33.8864 14.3812 40.5438 16.7445 47.5289 22.9469C52.8102 27.6359 58.2332 34.6894 62.8867 42.7277C67.6578 50.9691 71.2336 59.3187 72.6246 66.3453C74.3848 75.2375 72.9602 82.0316 69.5082 84.0297C66.159 85.9687 60.0297 83.916 53.4942 78.2918C47.9723 73.5402 42.0645 66.1984 37.1141 57.6477Z" stroke="#00D8FF" stroke-width="3.48086"/>
</g>
<defs>
<clipPath id="clip0_11_39">
<rect width="100" height="100" fill="white"/>
</clipPath>
</defs>
</svg>
