<svg width="100" height="100" viewBox="0 0 100 100" fill="none" xmlns="http://www.w3.org/2000/svg">
<g clip-path="url(#clip0_11_19)">
<path d="M76.5625 0H23.4375C10.4933 0 0 10.4933 0 23.4375V76.5625C0 89.5067 10.4933 100 23.4375 100H76.5625C89.5067 100 100 89.5067 100 76.5625V23.4375C100 10.4933 89.5067 0 76.5625 0Z" fill="#CD6799"/>
<mask id="mask0_11_19" style="mask-type:luminance" maskUnits="userSpaceOnUse" x="10" y="20" width="80" height="60">
<path d="M10.9375 20.7031H89.0625V79.2613H10.9375V20.7031Z" fill="white"/>
</mask>
<g mask="url(#mask0_11_19)">
<path d="M78.1668 54.3605C75.4426 54.3746 73.0754 55.0309 71.093 56.0004C70.3656 54.5602 69.6383 53.2766 69.5098 52.3352C69.3672 51.2371 69.1961 50.5668 69.3672 49.2547C69.5383 47.9426 70.3086 46.0746 70.2941 45.932C70.2801 45.7891 70.123 45.1191 68.5543 45.1047C66.9855 45.0906 65.6309 45.4043 65.4738 45.818C65.3168 46.2313 65.0176 47.1727 64.818 48.1426C64.5469 49.5688 61.6801 54.6602 60.0402 57.327C59.5125 56.2859 59.0562 55.3731 58.9562 54.6457C58.8137 53.5477 58.6426 52.8773 58.8137 51.5652C58.9848 50.2531 59.7551 48.3848 59.7406 48.2422C59.7266 48.0996 59.5695 47.4293 58.0008 47.4152C56.432 47.4008 55.077 47.7145 54.9203 48.1281C54.7633 48.5418 54.5922 49.5117 54.2641 50.4527C53.9363 51.3941 50.1285 59.8941 49.1301 62.0902C48.7267 62.979 48.3035 63.8586 47.8609 64.7285C47.8609 64.7285 47.8465 64.7715 47.8039 64.8426C47.6647 65.1154 47.522 65.3864 47.3758 65.6555V65.6699C47.1621 66.0551 46.9336 66.4113 46.8195 66.4113C46.734 66.4113 46.5773 65.3848 46.848 63.9871C47.4188 61.0348 48.7734 56.4426 48.7594 56.2859C48.7594 56.2004 49.016 55.4016 47.875 54.9879C46.7625 54.5742 46.3633 55.259 46.2633 55.259C46.1637 55.259 46.0922 55.5016 46.0922 55.5016C46.0922 55.5016 47.3332 50.3387 43.725 50.3387C41.4715 50.3387 38.3625 52.8059 36.8227 55.0309C35.0716 55.9837 33.322 56.9391 31.5738 57.8973C30.7328 58.368 29.8629 58.8387 29.0496 59.2809C28.9926 59.2238 28.9355 59.1523 28.8785 59.0953C24.5145 54.4316 16.4426 51.1375 16.7848 44.8766C16.9133 42.5945 17.6977 36.6047 32.2871 29.3313C44.2953 23.4129 53.8508 25.0527 55.5051 28.6895C57.8723 33.8809 50.3852 43.5215 37.9777 44.9191C33.2426 45.4469 30.7613 43.6215 30.134 42.9371C29.4777 42.2238 29.3777 42.1813 29.1352 42.3238C28.7359 42.5375 28.9926 43.1793 29.1352 43.55C29.5063 44.5199 31.032 46.2313 33.6133 47.0727C35.8953 47.8145 41.443 48.2281 48.1602 45.6324C55.6762 42.7231 61.552 34.6363 59.8262 27.8625C58.1008 20.9883 46.6914 18.7207 35.8953 22.557C29.4773 24.8391 22.518 28.4328 17.5121 33.1106C11.5648 38.6731 10.6238 43.5074 11.009 45.5324C12.3922 52.7203 22.3039 57.3981 26.2688 60.8637C26.0691 60.9777 25.8836 61.0777 25.727 61.1633C23.7445 62.1473 16.1859 66.0977 14.3031 70.2766C12.1641 75.0113 14.6457 78.4055 16.2856 78.8617C21.377 80.2738 26.6109 77.7352 29.4207 73.5422C32.2301 69.3492 31.8879 63.9016 30.5898 61.4059C30.5759 61.3743 30.5566 61.3453 30.5328 61.3203C31.0465 61.0207 31.5738 60.707 32.0875 60.4074C33.0313 59.8497 33.987 59.3123 34.9539 58.7957C34.4691 60.1223 34.1125 61.7051 33.9414 63.9871C33.7277 66.6684 34.8258 70.148 36.266 71.5172C36.9078 72.116 37.6637 72.1305 38.1488 72.1305C39.8316 72.1305 40.5875 70.7328 41.4289 69.0785C42.4555 67.0531 43.3828 64.7 43.3828 64.7C43.3828 64.7 42.2273 71.0609 45.3648 71.0609C46.5059 71.0609 47.6609 69.5777 48.1746 68.8219V68.8359C48.1746 68.8359 48.2031 68.7934 48.2602 68.6934C48.3742 68.5078 48.4453 68.3938 48.4453 68.3938V68.3652C48.902 67.5668 49.9285 65.7555 51.4547 62.7461C53.4227 58.8672 55.3195 54.0184 55.3195 54.0184C55.3195 54.0184 55.4906 55.202 56.0754 57.1699C56.4176 58.3254 57.1309 59.5945 57.7012 60.8211C57.2449 61.4629 56.9598 61.8191 56.9598 61.8191L56.9738 61.8336C56.6031 62.3184 56.2039 62.8461 55.7617 63.3594C54.207 65.2137 52.3531 67.3387 52.0965 67.952C51.7969 68.6793 51.8684 69.2066 52.4387 69.6348C52.8523 69.9484 53.5937 69.991 54.3496 69.9484C55.7473 69.8484 56.7316 69.5063 57.2164 69.2922C57.9723 69.0215 58.8566 68.6078 59.6836 67.9945C61.2098 66.868 62.1367 65.2563 62.0512 63.1313C62.0082 61.9617 61.623 60.7926 61.1527 59.6941C61.2953 59.4945 61.4234 59.2949 61.566 59.0953C63.9766 55.5727 65.8445 51.7078 65.8445 51.7078C65.8445 51.7078 66.0156 52.8914 66.6004 54.8598C66.8855 55.8578 67.4703 56.9418 67.984 57.9973C65.7164 59.8371 64.3188 61.9762 63.8195 63.3738C62.9211 65.9695 63.6199 67.1387 64.9461 67.4098C65.5453 67.5383 66.4008 67.2531 67.0285 66.982C67.827 66.7254 68.7684 66.2832 69.6668 65.627C71.1926 64.5004 72.6617 62.9316 72.5762 60.8066C72.5332 59.8371 72.2766 58.8813 71.9199 57.9543C73.8453 57.1559 76.327 56.7137 79.493 57.0844C86.2816 57.8832 87.6223 62.1188 87.3652 63.9016C87.1086 65.684 85.6824 66.6539 85.2117 66.9535C84.7414 67.2531 84.5844 67.3527 84.6273 67.5668C84.6844 67.8805 84.9125 67.866 85.3117 67.809C85.868 67.7094 88.877 66.3688 89.0055 63.0887C89.2195 58.8957 85.2262 54.3176 78.1668 54.3605ZM25.798 72.0164C23.5449 74.4691 20.4074 75.3965 19.0523 74.6121C17.5977 73.7703 18.168 70.1481 20.9352 67.5523C22.6176 65.9695 24.7855 64.5004 26.2258 63.602C26.5539 63.4023 27.0387 63.1172 27.6234 62.7606C27.7234 62.7035 27.7805 62.675 27.7805 62.675L28.1227 62.4609C29.1352 66.1691 28.1652 69.4352 25.798 72.0164ZM42.1988 60.8637C41.4145 62.775 39.7746 67.6664 38.7762 67.3957C37.9207 67.1672 37.393 63.4594 38.6051 59.7941C39.2184 57.9543 40.516 55.7582 41.2719 54.9023C42.4984 53.5332 43.8531 53.077 44.1813 53.6332C44.5949 54.3605 42.684 59.6656 42.1988 60.8637ZM55.7332 67.3387C55.4051 67.5098 55.0914 67.6238 54.9488 67.5383C54.8488 67.4813 55.0914 67.2531 55.0914 67.2531C55.0914 67.2531 56.7887 65.4273 57.459 64.6004C57.8438 64.1152 58.3004 63.5449 58.7852 62.9031V63.0887C58.7852 65.2707 56.6746 66.7395 55.7332 67.3387ZM66.1727 64.9566C65.9301 64.7856 65.9731 64.2152 66.7859 62.4324C67.0996 61.7336 67.8414 60.5645 69.1106 59.4375C69.2531 59.8941 69.3531 60.3359 69.3387 60.7496C69.3246 63.5023 67.3563 64.5289 66.1727 64.9566Z" fill="white"/>
</g>
</g>
<defs>
<clipPath id="clip0_11_19">
<rect width="100" height="100" fill="white"/>
</clipPath>
</defs>
</svg>
