<svg width="100" height="100" viewBox="0 0 100 100" fill="none" xmlns="http://www.w3.org/2000/svg">
<g clip-path="url(#clip0_11_54)">
<path d="M50.0031 20.0016C36.6695 20.0016 28.3391 26.6656 25.0031 39.9992C30.0016 33.3344 35.8367 30.8352 42.5015 32.5016C46.307 33.45 49.0266 36.2094 52.0383 39.2672C56.9398 44.2414 62.6133 50 75.0031 50C88.3359 50 96.6672 43.3351 100.003 29.9984C95.0039 36.6672 89.1695 39.1664 82.5039 37.5C78.6992 36.5508 75.9828 33.7922 72.9672 30.7344C68.0687 25.7602 62.3969 20.0016 50.0031 20.0016ZM25.0031 50C11.6703 50 3.33905 56.6648 0.00311279 70.0016C5.00155 63.3328 10.8359 60.8336 17.5016 62.5C21.307 63.4492 24.0265 66.2078 27.0383 69.2656C31.9398 74.2398 37.6133 79.9984 50.0031 79.9984C63.3359 79.9984 71.6672 73.3344 75.0031 60.0008C70.0039 66.6656 64.1695 69.1648 57.5039 67.4984C53.6992 66.55 50.9828 63.7906 47.9672 60.7328C43.0687 55.7586 37.3969 50 25.0031 50Z" fill="#38BDF8"/>
</g>
<defs>
<clipPath id="clip0_11_54">
<rect width="100" height="100" fill="white"/>
</clipPath>
</defs>
</svg>
